<svg xmlns="http://www.w3.org/2000/svg" viewBox="0 0 64 64" width="64" height="64">
  <defs>
    <radialGradient id="c" cx="0.5" cy="0.42" r="0.6">
      <stop offset="0" stop-color="#FBFAFF"/>
      <stop offset="1" stop-color="#E7E9FB"/>
    </radialGradient>
    <linearGradient id="r" x1="0" y1="0" x2="64" y2="64" gradientUnits="userSpaceOnUse">
      <stop offset="0" stop-color="#CFC6F5"/>
      <stop offset="0.5" stop-color="#BFE0F3"/>
      <stop offset="1" stop-color="#C7EFDD"/>
    </linearGradient>
    <linearGradient id="h" x1="20" y1="42" x2="44" y2="50" gradientUnits="userSpaceOnUse">
      <stop offset="0" stop-color="#8FE3F4"/>
      <stop offset="0.5" stop-color="#C9B8F5"/>
      <stop offset="1" stop-color="#CFF3D8"/>
    </linearGradient>
  </defs>
  <circle cx="32" cy="32" r="31" fill="#fff" stroke="url(#r)" stroke-width="2"/>
  <circle cx="32" cy="32" r="27" fill="url(#c)"/>
  <path d="M32 13 C40 13 45 23 45 33 C45 44 39 50 32 50 C25 50 19 44 19 33 C19 23 24 13 32 13Z" fill="#FFFEFA" stroke="#E3DAC8" stroke-width="1.2"/>
  <path d="M20 40 C23 46 27 50 32 50 C37 50 41 46 44 40 C39 44 25 44 20 40Z" fill="url(#h)"/>
  <path d="M20 40 L25 36 L29 40 L34 35 L38 40 L43 37" fill="none" stroke="#D8A97A" stroke-width="1.6" stroke-linejoin="round" stroke-linecap="round"/>
  <ellipse cx="28" cy="30" rx="3.4" ry="4.4" fill="#20223A"/>
  <ellipse cx="38" cy="30" rx="3.4" ry="4.4" fill="#20223A"/>
  <circle cx="29.2" cy="28.2" r="1.1" fill="#fff"/>
  <circle cx="39.2" cy="28.2" r="1.1" fill="#fff"/>
  <path d="M30 34 Q33 39 36 34 Q34 37 33 37 Q31 37 30 34Z" fill="#20223A"/>
  <ellipse cx="24" cy="34" rx="2.6" ry="1.7" fill="#FBB9CB" opacity="0.85"/>
  <ellipse cx="42" cy="34" rx="2.6" ry="1.7" fill="#FBB9CB" opacity="0.85"/>
</svg>
